<svg xmlns="http://www.w3.org/2000/svg" style="isolation:isolate" width="203" height="219"><defs><clipPath id="a"><path d="M0 0h203v219H0z"/></clipPath></defs><g stroke-width="2.3" stroke="#591C10" stroke-linejoin="round" stroke-linecap="round" stroke-miterlimit="3" clip-path="url(#a)"><path d="M69.82 2.58 18.34 65.94 129.22 30.3 69.82 2.58z" fill="#C03D24"/><path d="m18.34 65.94 79.2 71.28L129.22 30.3 18.34 65.94z" fill="#E6492A"/><path d="m200.5 121.38-67.32 95.04-35.64-79.2 102.96-15.84z" fill="#CC4126"/><path d="M18.34 65.94 2.5 97.62l15.84 83.16V65.94z" fill="#902E1B"/><path d="m18.34 65.94 79.2 71.28-79.2 43.56V65.94z" fill="#C53F24"/><path d="m18.34 180.78 114.84 35.64-35.64-79.2-79.2 43.56z" fill="#B53A21"/><path d="M97.54 137.22 129.22 30.3l71.28 91.08-102.96 15.84z" fill="#E94B2B"/><path d="m200.5 121.38-15.84 35.64-51.48 59.4 67.32-95.04z" fill="#932F1B"/><path d="m129.22 30.3 71.28 91.08-15.84-83.16-55.44-7.92z" fill="#C73F25"/><path d="m69.82 2.58 59.4 27.72 55.44 7.92L69.82 2.58z" fill="#AE3720"/></g></svg>